<?xml version="1.0" encoding="UTF-8"?>
<svg id="vector" width="24" height="24" version="1.1" viewBox="0 0 24 24" xmlns="http://www.w3.org/2000/svg">
 <path d="m17 17h-10v-3l-4 4 4 4v-3h12v-6h-2z"/>
 <path d="m13.752 11.576 1.8316-3.1854c-0.87599 0-1.6259-0.31191-2.2497-0.93572-0.62381-0.62381-0.93572-1.3737-0.93572-2.2497 0-0.87599 0.3119-1.6259 0.93572-2.2497 0.62381-0.62381 1.3737-0.93572 2.2497-0.93572 0.87599 0 1.6259 0.31191 2.2497 0.93572 0.62381 0.62381 0.93572 1.3737 0.93572 2.2497 0 0.30527-0.0365 0.58731-0.1095 0.84613-0.07299 0.25881-0.18249 0.50768-0.32849 0.74658l-2.7474 4.7781z" style=""/>
 <path d="m6.5848 11.576 1.8316-3.1854c-0.87599 0-1.6259-0.31191-2.2497-0.93572-0.62381-0.62381-0.93572-1.3737-0.93572-2.2497 0-0.87599 0.31191-1.6259 0.93572-2.2497 0.62381-0.62381 1.3737-0.93572 2.2497-0.93572 0.87599 0 1.6259 0.31191 2.2497 0.93572 0.62381 0.62381 0.93572 1.3737 0.93572 2.2497 0 0.30527-0.0365 0.58731-0.1095 0.84613-0.073 0.25881-0.1825 0.50768-0.3285 0.74658l-2.7474 4.7781z" style=""/>
</svg>
