<?xml version="1.0" encoding="UTF-8" standalone="no"?>
<svg
   id="vector"
   width="24"
   height="24"
   viewBox="0 0 960 960"
   version="1.1"
   sodipodi:docname="format_quote_24px.svg"
   inkscape:version="1.4.2 (ebf0e940d0, 2025-05-08)"
   xmlns:inkscape="http://www.inkscape.org/namespaces/inkscape"
   xmlns:sodipodi="http://sodipodi.sourceforge.net/DTD/sodipodi-0.dtd"
   xmlns="http://www.w3.org/2000/svg"
   xmlns:svg="http://www.w3.org/2000/svg">
  <defs
     id="defs1" />
  <sodipodi:namedview
     id="namedview1"
     pagecolor="#ffffff"
     bordercolor="#000000"
     borderopacity="0.25"
     inkscape:showpageshadow="2"
     inkscape:pageopacity="0.0"
     inkscape:pagecheckerboard="0"
     inkscape:deskcolor="#d1d1d1"
     inkscape:zoom="20.37774"
     inkscape:cx="5.0790715"
     inkscape:cy="6.1341443"
     inkscape:window-width="2027"
     inkscape:window-height="1485"
     inkscape:window-x="744"
     inkscape:window-y="231"
     inkscape:window-maximized="0"
     inkscape:current-layer="vector" />
  <path
     d="m 588,720 92,-160 q 0,0 0,0 0,0 0,0 -66,0 -113,-47 -47,-47 -47,-113 0,-66 47,-113 47,-47 113,-47 66,0 113,47 47,47 47,113 0,23 -5.5,42.5 Q 829,462 818,480 L 680,720 Z"
     id="path1" />
  <path
     d="m 228,720 92,-160 q 0,0 0,0 0,0 0,0 -66,0 -113,-47 -47,-47 -47,-113 0,-66 47,-113 47,-47 113,-47 66,0 113,47 47,47 47,113 0,23 -5.5,42.5 Q 469,462 458,480 L 320,720 Z"
     id="path_0" />
</svg>
